<?xml version="1.0" encoding="UTF-8" standalone="no"?>
<!-- Created with Inkscape (http://www.inkscape.org/) -->

<svg
   width="32"
   height="32"
   viewBox="0 0 32 32"
   version="1.1"
   id="svg1"
   sodipodi:docname="checkbox_checked.svg"
   xml:space="preserve"
   inkscape:version="1.4.2 (f4327f4, 2025-05-13)"
   xmlns:inkscape="http://www.inkscape.org/namespaces/inkscape"
   xmlns:sodipodi="http://sodipodi.sourceforge.net/DTD/sodipodi-0.dtd"
   xmlns="http://www.w3.org/2000/svg"
   xmlns:svg="http://www.w3.org/2000/svg"><sodipodi:namedview
     id="namedview1"
     pagecolor="#ffffff"
     bordercolor="#000000"
     borderopacity="0.25"
     inkscape:showpageshadow="2"
     inkscape:pageopacity="0.0"
     inkscape:pagecheckerboard="0"
     inkscape:deskcolor="#d1d1d1"
     inkscape:zoom="25.4375"
     inkscape:cx="15.980344"
     inkscape:cy="16"
     inkscape:window-width="1920"
     inkscape:window-height="1009"
     inkscape:window-x="-8"
     inkscape:window-y="-8"
     inkscape:window-maximized="1"
     inkscape:current-layer="layer1" /><defs
     id="defs1" /><g
     id="layer1"><rect
       style="fill:none;stroke:#000000;stroke-opacity:1"
       id="rect1"
       width="31"
       height="31"
       x="0.5"
       y="0.5" /><path
       style="fill:none;stroke:#000000;stroke-width:0.987226;stroke-opacity:1"
       d="M 31.651049,0.3490371 0.34903711,31.65105"
       id="path1" /><path
       style="fill:none;stroke:#000000;stroke-width:0.987226;stroke-opacity:1"
       d="M 31.65105,31.651049 0.3490366,0.34903761"
       id="path1-8" /><ellipse
       style="fill:none;stroke:#000000;stroke-width:1.01039;stroke-opacity:1"
       id="path2"
       cx="15.999997"
       cy="15.999999"
       rx="15.495"
       ry="15.494804" /><ellipse
       style="fill:none;stroke:#000000;stroke-width:1.12118;stroke-opacity:1"
       id="path3"
       cx="15.999998"
       cy="15.999998"
       rx="7.4394078"
       ry="7.4394083" /><rect
       style="display:none;fill:none;stroke:#ff0000;stroke-width:2;stroke-linecap:round;stroke-linejoin:round;stroke-dasharray:none;stroke-opacity:1;paint-order:stroke fill markers"
       id="rect3"
       width="22.929131"
       height="22.929131"
       x="4.5354352"
       y="4.5354352"
       rx="5.3157907"
       ry="5.3932118" /><path
       d="m 15.371826,19.472186 -4.358741,-4.331132 1.13843,-1.131219 3.220311,3.199913 9.736411,-9.674738 C 24.517008,6.816279 23.623874,6.3412919 22.617527,6.3412919 H 9.7362818 c -1.7736863,0 -3.2203112,1.4374619 -3.2203112,3.1999133 V 22.340859 c 0,1.762453 1.4466249,3.199914 3.2203112,3.199914 H 22.617527 c 1.773688,0 3.220311,-1.437461 3.220311,-3.199914 V 9.5412052 c 0,-0.1437465 -0.02516,-0.2874913 -0.04403,-0.4249884 z"
       id="path1-4"
       style="fill:#ff0000;fill-opacity:1;stroke-width:1.60505" /></g></svg>
