<?xml version="1.0" encoding="UTF-8" standalone="no"?>
<svg
   height="40px"
   viewBox="0 -960 960 960"
   width="40px"
   fill="#FF0000"
   version="1.1"
   id="svg1"
   xml:space="preserve"
   xmlns="http://www.w3.org/2000/svg"
   xmlns:svg="http://www.w3.org/2000/svg"><defs
     id="defs1" /><g
     id="layer1"
     transform="matrix(29.999663,0,0,29.999869,0.00593298,-959.99999)"><rect
       style="fill:none;stroke:#000000;stroke-opacity:1"
       id="rect1"
       width="31"
       height="31"
       x="0.5"
       y="0.5" /><path
       style="fill:none;stroke:#000000;stroke-width:0.987226;stroke-opacity:1"
       d="M 31.651049,0.3490371 0.34903711,31.65105"
       id="path1-5" /><path
       style="fill:none;stroke:#000000;stroke-width:0.987226;stroke-opacity:1"
       d="M 31.65105,31.651049 0.3490366,0.34903761"
       id="path1-8" /><ellipse
       style="fill:none;stroke:#000000;stroke-width:1.01039;stroke-opacity:1"
       id="path2"
       cx="15.999997"
       cy="15.999999"
       rx="15.495"
       ry="15.494804" /><ellipse
       style="fill:none;stroke:#000000;stroke-width:1.12118;stroke-opacity:1"
       id="path3"
       cx="15.999998"
       cy="15.999998"
       rx="7.4394078"
       ry="7.4394083" /></g><path
     d="M449.9-413.33q40.77 0 68.77-27.9 28-27.89 28-68.67 0-40.77-27.9-68.77-27.89-28-68.67-28-40.77 0-68.77 27.9-28 27.89-28 68.67 0 40.77 27.9 68.77 27.89 28 68.67 28Zm193.1 144L538.67-373.67q-21.34 13.67-43.84 20.34-22.5 6.66-44.52 6.66-67.98 0-115.81-47.83T286.67-510q0-67.67 47.83-115.5T450-673.33q67.67 0 115.5 47.83t47.83 115.81q0 22.02-7.16 44.52-7.17 22.5-20.84 43.84L690.67-316 643-269.33ZM186.67-120q-27 0-46.84-19.83Q120-159.67 120-186.67v-168h66.67v168h168V-120h-168Zm418.66 0v-66.67h168v-168H840v168q0 27-19.83 46.84Q800.33-120 773.33-120h-168ZM120-605.33v-168q0-27 19.83-46.84Q159.67-840 186.67-840h168v66.67h-168v168H120Zm653.33 0v-168h-168V-840h168q27 0 46.84 19.83Q840-800.33 840-773.33v168h-66.67Z"
     id="path1" /></svg>
