<?xml version="1.0" encoding="UTF-8" standalone="no"?>
<!-- Created with Inkscape (http://www.inkscape.org/) -->

<svg
   width="32"
   height="32"
   viewBox="0 0 32 32"
   version="1.1"
   id="svg1"
   xmlns="http://www.w3.org/2000/svg"
   xmlns:svg="http://www.w3.org/2000/svg">
  <defs
     id="defs1" />
  <g
     id="layer1">
    <rect
       style="fill:none;stroke:#000000;stroke-opacity:1"
       id="rect1"
       width="31"
       height="31"
       x="0.5"
       y="0.5" />
    <path
       style="fill:none;stroke:#000000;stroke-width:0.987226;stroke-opacity:1"
       d="M 31.651049,0.3490371 0.34903711,31.65105"
       id="path1" />
    <path
       style="fill:none;stroke:#000000;stroke-width:0.987226;stroke-opacity:1"
       d="M 31.65105,31.651049 0.3490366,0.34903761"
       id="path1-8" />
    <ellipse
       style="fill:none;stroke:#000000;stroke-width:1.01039;stroke-opacity:1"
       id="path2"
       cx="15.999997"
       cy="15.999999"
       rx="15.495"
       ry="15.494804" />
    <ellipse
       style="fill:none;stroke:#000000;stroke-width:1.12118;stroke-opacity:1"
       id="path3"
       cx="15.999998"
       cy="15.999998"
       rx="7.4394078"
       ry="7.4394083" />
  </g>
  <g
     id="g19"
     transform="matrix(1,0,0,-1,0.15724816,32.234176)">
    <g
       id="g6"
       style="fill:#ff0000;fill-opacity:1;stroke:#ff0000;stroke-opacity:1">
      <path
         style="fill:#ff0000;fill-opacity:1;stroke:#ff0000;stroke-width:2;stroke-linecap:round;stroke-linejoin:round;stroke-opacity:1;paint-order:stroke fill markers"
         d="M 10.732187,10.653563 H 21.267813"
         id="path4" />
      <path
         style="fill:#ff0000;fill-opacity:1;stroke:#ff0000;stroke-width:2;stroke-linecap:round;stroke-linejoin:round;stroke-opacity:1;paint-order:stroke fill markers"
         d="M 16.117936,23.351351 21.385749,10.653562"
         id="path5" />
      <path
         style="fill:#ff0000;fill-opacity:1;stroke:#ff0000;stroke-width:2;stroke-linecap:round;stroke-linejoin:round;stroke-opacity:1;paint-order:stroke fill markers"
         d="M 10.692875,10.771499 16,23.390663"
         id="path6" />
    </g>
    <path
       style="fill:#ff0000;fill-opacity:1;stroke:#ff0000;stroke-width:0.0786241;stroke-linecap:round;stroke-linejoin:round;stroke-opacity:1;paint-order:stroke fill markers"
       d=""
       id="path7" />
    <path
       style="fill:#ff0000;fill-opacity:1;stroke:#ff0000;stroke-width:0.0786241;stroke-linecap:round;stroke-linejoin:round;stroke-opacity:1;paint-order:stroke fill markers"
       d=""
       id="path8" />
    <path
       style="fill:#ff0000;fill-opacity:1;stroke:#ff0000;stroke-width:0.0786241;stroke-linecap:round;stroke-linejoin:round;stroke-opacity:1;paint-order:stroke fill markers"
       d="m 16.619169,17.287785 -0.618849,-0.618849 -0.607794,0.606845 c -0.518297,0.517489 -0.611954,0.595589 -0.636048,0.530397 -0.01554,-0.04205 -0.103881,-0.253352 -0.196312,-0.469569 l -0.168058,-0.39312 0.469773,-0.471523 0.469773,-0.471524 -1.155921,-1.159926 -1.155921,-1.159926 -0.41654,-0.995951 c -0.229097,-0.547773 -0.41654,-1.003301 -0.41654,-1.012285 0,-0.120995 0.419216,0.265552 1.975275,1.821347 L 16,15.331382 17.837993,13.493701 c 1.382871,-1.382637 1.860898,-1.837681 1.930496,-1.837681 0.05795,0 0.08539,0.01836 0.07347,0.04914 -0.01047,0.02703 -0.192083,0.467791 -0.40359,0.979475 l -0.384556,0.930335 -1.192602,1.192121 -1.192602,1.192121 0.492101,0.493195 0.4921,0.493195 -0.187585,0.459948 c -0.103171,0.252971 -0.196499,0.460203 -0.207396,0.460516 -0.0109,3.12e-4 -0.298294,-0.277914 -0.63866,-0.618281 z"
       id="path13" />
    <path
       style="fill:#ff0000;fill-opacity:1;stroke:#ff0000;stroke-width:0.0786241;stroke-linecap:round;stroke-linejoin:round;stroke-opacity:1;paint-order:stroke fill markers"
       d="M 14.191646,13.444717 12.403272,11.65602 H 16 19.596728 l -1.788374,1.788697 C 16.824748,14.428501 16.010989,15.233415 16,15.233415 c -0.01099,0 -0.824748,-0.804914 -1.808354,-1.788698 z"
       id="path14" />
    <path
       style="fill:#ff0000;fill-opacity:1;stroke:#ff0000;stroke-width:0.0786241;stroke-linecap:round;stroke-linejoin:round;stroke-opacity:1;paint-order:stroke fill markers"
       d="m 13.748428,15.40311 c -0.341067,-0.813 -0.61447,-1.483833 -0.607562,-1.490741 0.0069,-0.0069 0.485064,0.460188 1.062569,1.037991 l 1.05001,1.05055 -0.442447,0.44019 -0.442448,0.440191 z"
       id="path15" />
    <path
       style="fill:#ff0000;fill-opacity:1;stroke:#ff0000;stroke-width:0.0786241;stroke-linecap:round;stroke-linejoin:round;stroke-opacity:1;paint-order:stroke fill markers"
       d="m 15.416811,19.373512 -0.602844,-1.440228 0.592859,-0.592859 0.592859,-0.592859 0.609494,0.608542 c 0.335222,0.334699 0.609494,0.623117 0.609494,0.640929 0,0.05649 -1.153712,2.818733 -1.17687,2.817695 -0.01218,-5.46e-4 -0.293427,-0.649095 -0.624992,-1.44122 z"
       id="path16" />
    <path
       style="fill:#ff0000;fill-opacity:1;stroke:#ff0000;stroke-width:0.0786241;stroke-linecap:round;stroke-linejoin:round;stroke-opacity:1;paint-order:stroke fill markers"
       d="M 17.207787,16.460881 16.747256,15.999147 17.847829,14.8991 c 0.605316,-0.605026 1.100574,-1.085978 1.100574,-1.068781 0,0.03046 -1.201457,2.947173 -1.253791,3.043765 -0.01708,0.03152 -0.187735,-0.113332 -0.486825,-0.413203 z"
       id="path17" />
    <path
       style="fill:#ff0000;fill-opacity:1;stroke:#ff0000;stroke-width:0.0786241;stroke-linecap:round;stroke-linejoin:round;stroke-opacity:1;paint-order:stroke fill markers"
       d="M 15.578496,24.269379 C 15.24468,24.107456 15.222059,24.06345 14.096125,21.385749 13.514264,20.001966 12.295303,17.109582 11.387322,14.958231 9.7514894,11.082323 9.7364301,11.044176 9.734559,10.771499 9.7322255,10.431422 9.8475504,10.146065 10.067706,9.9471679 10.373687,9.6707325 9.9143332,9.6904177 16.058968,9.6904177 c 6.109445,0 5.681031,-0.01734 5.976283,0.2418942 0.342069,0.3003411 0.410051,0.7594721 0.188286,1.2716191 -0.11063,0.255487 -1.426025,3.420739 -4.108769,9.886978 -0.605507,1.45946 -1.125134,2.700436 -1.154726,2.757725 -0.08057,0.155973 -0.356257,0.375041 -0.558852,0.444072 -0.252978,0.0862 -0.618253,0.07584 -0.822694,-0.02333 z m 0.610599,-3.636945 c 0.150083,-0.359562 0.144512,-0.424408 -0.0081,-0.09391 -0.07479,0.162007 -0.124889,0.226794 -0.163815,0.211857 -0.03084,-0.01184 -0.04629,-0.03736 -0.03432,-0.05671 0.01196,-0.01936 0.0011,-0.03519 -0.02409,-0.03519 -0.02824,0 -0.03496,0.02642 -0.01752,0.0688 0.01558,0.03784 0.03722,0.09975 0.0481,0.137592 0.0343,0.119284 0.07047,0.07718 0.199706,-0.232431 z M 15.867058,20.47522 c -0.03326,-0.06137 -0.06118,-0.09915 -0.06204,-0.08395 -0.0027,0.04673 0.0888,0.229251 0.106168,0.211879 0.009,-0.009 -0.01087,-0.06656 -0.04412,-0.12793 z m -0.09813,-0.236399 c -0.04634,-0.07969 -0.05753,-0.05419 -0.0196,0.04467 0.01348,0.03513 0.03279,0.0556 0.04292,0.04548 0.01012,-0.01012 -3.71e-4,-0.05069 -0.02332,-0.09015 z m 0.622989,-0.111057 c 0,-0.02162 -0.01715,-0.01278 -0.03811,0.01966 -0.02096,0.03243 -0.03811,0.07666 -0.03811,0.09828 0,0.02162 0.01715,0.01278 0.03811,-0.01966 0.02096,-0.03243 0.03811,-0.07666 0.03811,-0.09828 z M 15.65099,19.963636 c -0.04634,-0.07969 -0.05753,-0.05419 -0.0196,0.04467 0.01348,0.03513 0.03279,0.0556 0.04292,0.04548 0.01012,-0.01012 -3.71e-4,-0.05069 -0.02332,-0.09015 z m 0.85728,-0.111056 c 0,-0.02162 -0.02528,0.0049 -0.05618,0.05897 -0.0309,0.05405 -0.05618,0.11597 -0.05618,0.137592 0,0.02162 0.02528,-0.0049 0.05618,-0.05897 0.0309,-0.05405 0.05618,-0.115971 0.05618,-0.137592 z m -0.975216,-0.164128 c -0.04634,-0.07969 -0.05753,-0.05419 -0.0196,0.04467 0.01348,0.03513 0.03279,0.0556 0.04292,0.04548 0.01012,-0.01012 -3.71e-4,-0.05069 -0.02332,-0.09015 z m 1.055422,-0.03243 c 0,-0.02162 -0.01715,-0.01278 -0.03811,0.01966 -0.02096,0.03243 -0.03811,0.07666 -0.03811,0.09828 0,0.02162 0.01715,0.01278 0.03811,-0.01966 0.02096,-0.03243 0.03811,-0.07666 0.03811,-0.09828 z m 0.117937,-0.275185 c 0,-0.02162 -0.01715,-0.01278 -0.03811,0.01966 -0.02096,0.03243 -0.03811,0.07666 -0.03811,0.09828 0,0.02162 0.01715,0.01278 0.03811,-0.01966 0.02096,-0.03243 0.03811,-0.07666 0.03811,-0.09828 z M 15.336494,19.21671 c -0.04634,-0.07969 -0.05753,-0.05419 -0.0196,0.04467 0.01348,0.03513 0.03279,0.0556 0.04292,0.04548 0.01012,-0.01012 -3.71e-4,-0.05069 -0.02332,-0.09015 z m 1.448543,-0.03243 c 0,-0.02162 -0.01715,-0.01278 -0.03811,0.01966 -0.02096,0.03243 -0.03811,0.07666 -0.03811,0.09828 0,0.02162 0.01715,0.01278 0.03811,-0.01966 0.02096,-0.03243 0.03811,-0.07666 0.03811,-0.09828 z m -1.566479,-0.242752 c -0.04634,-0.07969 -0.05753,-0.05419 -0.0196,0.04467 0.01348,0.03513 0.03279,0.0556 0.04292,0.04548 0.01012,-0.01012 -3.71e-4,-0.05069 -0.02332,-0.09015 z m 1.684415,-0.03243 c 0,-0.02162 -0.01715,-0.01278 -0.03811,0.01966 -0.02096,0.03243 -0.03811,0.07666 -0.03811,0.09828 0,0.02162 0.01715,0.01278 0.03811,-0.01966 0.02096,-0.03243 0.03811,-0.07666 0.03811,-0.09828 z m 0.07862,-0.19656 c 0,-0.02162 -0.01715,-0.01278 -0.03811,0.01966 -0.02096,0.03243 -0.03811,0.07666 -0.03811,0.09828 0,0.02162 0.01715,0.01278 0.03811,-0.01966 0.02096,-0.03243 0.03811,-0.07666 0.03811,-0.09828 z m 0.116354,-0.275185 c 0,-0.02162 -0.02528,0.0049 -0.05618,0.05897 -0.0309,0.05405 -0.05618,0.115971 -0.05618,0.137593 0,0.02162 0.02528,-0.0049 0.05618,-0.05897 0.0309,-0.05405 0.05618,-0.115971 0.05618,-0.137593 z m -2.075953,0.03243 c -0.04634,-0.07969 -0.05753,-0.05419 -0.0196,0.04467 0.01348,0.03513 0.03279,0.0556 0.04292,0.04547 0.01012,-0.01012 -3.71e-4,-0.05069 -0.02332,-0.09015 z m 2.156159,-0.228993 c 0,-0.02162 -0.01715,-0.01278 -0.03811,0.01966 -0.02096,0.03243 -0.03811,0.07666 -0.03811,0.09828 0,0.02162 0.01715,0.01278 0.03811,-0.01966 0.02096,-0.03243 0.03811,-0.07666 0.03811,-0.09828 z m 0.136472,-0.334152 c 0.02019,-0.07313 0.01689,-0.08337 -0.0129,-0.04 -0.03858,0.05617 -0.09245,0.02302 -0.318307,-0.19587 -0.150472,-0.145833 -0.123741,-0.07724 0.03398,0.08718 0.183138,0.190924 0.208166,0.235454 0.186606,0.332015 l -0.0249,0.111518 0.05419,-0.09828 c 0.02981,-0.05405 0.0664,-0.142506 0.08132,-0.19656 z m -2.489191,0.0914 c -0.04634,-0.07969 -0.05753,-0.05419 -0.0196,0.04467 0.01348,0.03513 0.03279,0.0556 0.04292,0.04548 0.01012,-0.01012 -3.71e-4,-0.05069 -0.02332,-0.09015 z M 14.940687,17.7593 c 0.130774,-0.142224 0.131123,-0.143411 0.01006,-0.03421 -0.07268,0.06556 -0.150356,0.103562 -0.18473,0.09037 -0.04042,-0.01551 -0.05235,-0.0046 -0.03745,0.03421 0.0325,0.08471 0.06314,0.07165 0.212124,-0.09037 z m 2.811771,-0.94377 c -0.0125,-0.0125 -0.02273,-0.0021 -0.02273,0.02313 0,0.08102 -0.09084,0.04925 -0.234001,-0.08185 l -0.139464,-0.127713 0.147421,0.158854 c 0.08108,0.08737 0.148128,0.184644 0.148994,0.216164 8.65e-4,0.03152 0.02878,0.0071 0.06204,-0.05427 0.03326,-0.06137 0.05024,-0.121813 0.03774,-0.134315 z m -3.398689,0.05851 c -0.03883,-0.03854 -0.04334,-0.03402 -0.02201,0.02201 0.01476,0.03877 0.03674,0.06059 0.04885,0.04848 0.0121,-0.0121 2.5e-5,-0.04382 -0.02684,-0.07049 z m 3.492689,-0.245045 c 0,-0.02162 -0.01715,-0.01278 -0.03811,0.01966 -0.02096,0.03243 -0.03811,0.07666 -0.03811,0.09828 0,0.02162 0.01715,0.01278 0.03811,-0.01966 0.02096,-0.03243 0.03811,-0.07666 0.03811,-0.09828 z m -3.767953,-0.4 c -0.04634,-0.07969 -0.05753,-0.05419 -0.0196,0.04467 0.01348,0.03513 0.03279,0.0556 0.04292,0.04548 0.01012,-0.01012 -3.71e-4,-0.05069 -0.02332,-0.09015 z m 3.964513,-0.07174 c 0,-0.02162 -0.01715,-0.01278 -0.03811,0.01966 -0.02096,0.03243 -0.03811,0.07666 -0.03811,0.09828 0,0.02162 0.01715,0.01278 0.03811,-0.01966 0.02096,-0.03243 0.03811,-0.07666 0.03811,-0.09828 z m -4.161073,-0.4 c -0.04634,-0.07969 -0.05753,-0.05419 -0.0196,0.04467 0.01348,0.03513 0.03279,0.0556 0.04292,0.04548 0.01012,-0.01012 -3.71e-4,-0.05069 -0.02332,-0.09015 z m 4.357633,-0.07174 c 0,-0.02162 -0.01715,-0.01278 -0.03811,0.01966 -0.02096,0.03243 -0.03811,0.07666 -0.03811,0.09828 0,0.02162 0.01715,0.01278 0.03811,-0.01966 0.02096,-0.03243 0.03811,-0.07666 0.03811,-0.09828 z m -4.475569,-0.20344 c -0.04634,-0.07969 -0.05753,-0.05419 -0.0196,0.04467 0.01348,0.03513 0.03279,0.0556 0.04292,0.04547 0.01012,-0.01012 -3.71e-4,-0.05069 -0.02332,-0.09015 z m 4.672129,-0.268305 c 0,-0.02162 -0.01715,-0.01278 -0.03811,0.01966 -0.02096,0.03243 -0.03811,0.07666 -0.03811,0.09828 0,0.02162 0.01715,0.01278 0.03811,-0.01966 0.02096,-0.03243 0.03811,-0.07666 0.03811,-0.09828 z m -1.983383,-0.383292 0.431762,-0.442261 -0.442301,0.431803 -0.442301,0.431802 -0.501188,-0.49077 -0.501188,-0.490771 0.49081,0.501229 c 0.269946,0.275675 0.500224,0.501228 0.511728,0.501228 0.0115,0 0.215209,-0.199017 0.452678,-0.44226 z m 2.062007,0.186732 c 0,-0.02162 -0.01715,-0.01278 -0.03811,0.01966 -0.02096,0.03243 -0.03811,0.07666 -0.03811,0.09828 0,0.02162 0.01715,0.01278 0.03811,-0.01966 0.02096,-0.03243 0.03811,-0.07666 0.03811,-0.09828 z m -4.947314,-0.0069 c -0.04634,-0.07969 -0.05753,-0.05419 -0.0196,0.04467 0.01348,0.03513 0.03279,0.0556 0.04292,0.04548 0.01012,-0.01012 -3.72e-4,-0.05069 -0.02332,-0.09015 z m 5.063669,-0.268304 c 0,-0.02162 -0.02528,0.0049 -0.05618,0.05897 -0.0309,0.05405 -0.05618,0.11597 -0.05618,0.137592 0,0.02162 0.02528,-0.0049 0.05618,-0.05897 0.0309,-0.05405 0.05618,-0.115971 0.05618,-0.137592 z m -5.162097,0.03296 c -0.03326,-0.06137 -0.06118,-0.09915 -0.06204,-0.08395 -0.0027,0.04673 0.0888,0.229251 0.106169,0.211879 0.009,-0.009 -0.01086,-0.06656 -0.04412,-0.12793 z m 5.242303,-0.229519 c 0,-0.02162 -0.01715,-0.01278 -0.03811,0.01966 -0.02096,0.03243 -0.03811,0.07666 -0.03811,0.09828 0,0.02162 0.01715,0.01278 0.03811,-0.01966 0.02096,-0.03243 0.03811,-0.07666 0.03811,-0.09828 z m -5.340435,-0.0069 c -0.04634,-0.07969 -0.05753,-0.05419 -0.0196,0.04467 0.01348,0.03513 0.03279,0.0556 0.04292,0.04548 0.01012,-0.01012 -3.71e-4,-0.05069 -0.02332,-0.09015 z m 5.577511,-0.693431 c 0,0.02483 -0.03583,0.128721 -0.07961,0.230871 -0.04379,0.10215 -0.07306,0.192278 -0.06505,0.200285 0.008,0.008 0.07877,-0.139414 0.157246,-0.327602 0.07848,-0.188189 0.138711,-0.343189 0.13385,-0.344446 -0.0049,-0.0013 -0.2209,0.218844 -0.480086,0.489114 -0.46711,0.487085 -0.467714,0.487954 -0.0688,0.09902 0.221348,-0.215811 0.402452,-0.372069 0.402452,-0.34724 z M 13.837838,14.5153 c 0,-0.0058 -0.195648,-0.204791 -0.434773,-0.44226 l -0.434772,-0.431762 0.07778,0.19656 c 0.157491,0.39801 0.253032,0.610807 0.267668,0.59617 0.0083,-0.0083 -0.02081,-0.09859 -0.06459,-0.200745 -0.07706,-0.179765 -0.108929,-0.358344 -0.04953,-0.277489 0.08829,0.120171 0.638219,0.602295 0.638219,0.559526 z m 4.952113,-0.166406 c 0,-0.02162 -0.01715,-0.01278 -0.03811,0.01966 -0.02096,0.03243 -0.03811,0.07666 -0.03811,0.09828 0,0.02162 0.01715,0.01278 0.03811,-0.01966 0.02096,-0.03243 0.03811,-0.07666 0.03811,-0.09828 z m 0.895862,-2.726453 c -0.01909,-0.0077 -0.03802,-0.0071 -0.04208,0.0013 -0.0041,0.0084 -0.210811,0.225888 -0.45946,0.483361 l -0.452088,0.468132 0.494166,-0.469438 c 0.271792,-0.25819 0.478548,-0.475703 0.45946,-0.48336 z m -6.891646,0.451822 c -0.236792,-0.245642 -0.455447,-0.449082 -0.485901,-0.452089 -0.03045,-0.003 0.155295,0.197114 0.412776,0.444712 0.257481,0.247599 0.476136,0.451038 0.485901,0.452089 0.0098,0.0011 -0.175984,-0.19907 -0.412776,-0.444712 z m -0.366764,0.223526 c -0.04634,-0.07969 -0.05753,-0.05419 -0.0196,0.04467 0.01348,0.03513 0.03279,0.0556 0.04292,0.04547 0.01012,-0.01012 -3.71e-4,-0.05069 -0.02332,-0.09015 z m -0.19656,-0.471745 c -0.04634,-0.07969 -0.05753,-0.05419 -0.0196,0.04467 0.01348,0.03513 0.03279,0.0556 0.04292,0.04548 0.01012,-0.01012 -3.71e-4,-0.05069 -0.02332,-0.09015 z m -0.05657,-0.177395 c -0.01255,-0.03136 -0.02187,-0.02205 -0.02375,0.02375 -0.0017,0.04144 0.0076,0.06466 0.02065,0.0516 0.01306,-0.01306 0.01446,-0.04697 0.0031,-0.07535 z m 7.705159,0 c -0.01255,-0.03136 -0.02186,-0.02205 -0.02375,0.02375 -0.0017,0.04144 0.0076,0.06466 0.02065,0.0516 0.01306,-0.01306 0.01446,-0.04697 0.0031,-0.07535 z"
       id="path18" />
  </g>
</svg>
